<svg xmlns="http://www.w3.org/2000/svg" xmlns:xlink="http://www.w3.org/1999/xlink" width="500" zoomAndPan="magnify" viewBox="0 0 375 374.999991" height="500" preserveAspectRatio="xMidYMid meet" version="1.0"><defs><g/></defs><g fill="#006c3f" fill-opacity="1"><g transform="translate(27.741131, 262.649536)"><g><path d="M 5.546875 -0.625 L 38.375 -4.34375 C 41.71875 -4.71875 43.53125 -6.5 43.21875 -9.171875 L 43.125 -10.0625 C 42.421875 -16.265625 29.03125 -17.4375 31.4375 -28.0625 L 34.75 -42.359375 L 90.875 -48.71875 L 97.546875 -35.546875 C 102.4375 -25.984375 89.46875 -21.59375 90.171875 -15.390625 L 90.265625 -14.5 C 90.578125 -11.828125 92.734375 -10.5 96.078125 -10.875 L 152.859375 -17.3125 C 156.1875 -17.6875 158.015625 -19.46875 157.703125 -22.140625 L 157.609375 -23.03125 C 156.90625 -29.234375 148.75 -29.671875 142.578125 -40.640625 L 83.75 -143.421875 C 78.40625 -152.921875 90.46875 -159.46875 89.890625 -164.5625 L 89.796875 -165.4375 C 89.484375 -168.109375 87.09375 -169.40625 84.203125 -169.078125 L 33.1875 -163.296875 C 30.078125 -162.9375 28.25 -161.171875 28.5625 -158.5 L 28.65625 -157.625 C 29.265625 -152.296875 42.03125 -146.78125 39.671875 -137.75 L 10.359375 -25.671875 C 7.03125 -13.375 -1.0625 -11.34375 -0.359375 -5.140625 L -0.265625 -4.25 C 0.046875 -1.578125 2.21875 -0.25 5.546875 -0.625 Z M 38.859375 -59.6875 L 54.078125 -123.640625 L 83.4375 -64.734375 Z M 38.859375 -59.6875 "/></g></g></g><g fill="#006c3f" fill-opacity="1"><g transform="translate(170.674694, 243.907508)"><g><path d="M 14.4375 1.453125 L 62.859375 6.359375 C 66.1875 6.6875 68.359375 5.34375 68.625 2.65625 L 68.71875 1.78125 C 69.34375 -4.4375 59.828125 -8.078125 60.875 -18.3125 L 65.8125 -64.953125 L 124.015625 -59.0625 L 119.53125 -12.390625 C 118.484375 -2.15625 109.5625 -0.375 108.9375 5.84375 L 108.84375 6.71875 C 108.578125 9.40625 110.1875 11.140625 113.515625 11.46875 L 161.9375 16.359375 C 165.046875 16.671875 167.421875 15.359375 167.6875 12.671875 L 167.78125 11.796875 C 168.40625 5.578125 158.6875 1.90625 159.734375 -8.328125 L 170.765625 -117.609375 C 171.8125 -127.84375 182.0625 -129.484375 182.6875 -135.703125 L 182.78125 -136.59375 C 183.046875 -139.265625 180.984375 -141.046875 177.875 -141.359375 L 129.453125 -146.25 C 126.125 -146.578125 124.203125 -145.21875 123.9375 -142.546875 L 123.84375 -141.65625 C 123.21875 -135.4375 131.609375 -131.90625 130.5625 -121.671875 L 125.765625 -76.375 L 67.328125 -82.28125 L 72.140625 -127.578125 C 73.1875 -137.8125 83 -139.5 83.625 -145.71875 L 83.71875 -146.609375 C 83.984375 -149.28125 82.125 -151.03125 78.796875 -151.359375 L 30.375 -156.265625 C 27.265625 -156.578125 24.890625 -155.25 24.625 -152.578125 L 24.53125 -151.6875 C 23.90625 -145.46875 32.515625 -141.921875 31.46875 -131.6875 L 20.4375 -22.40625 C 19.390625 -12.171875 10.25 -10.40625 9.625 -4.1875 L 9.53125 -3.3125 C 9.265625 -0.625 11.328125 1.140625 14.4375 1.453125 Z M 14.4375 1.453125 "/></g></g></g></svg>